<svg xmlns="http://www.w3.org/2000/svg" viewBox="0 0 800 400">
  <defs>
    <linearGradient id="bg" x1="0%" y1="0%" x2="100%" y2="100%">
      <stop offset="0%" style="stop-color:#1e3a5f"/>
      <stop offset="100%" style="stop-color:#2563eb"/>
    </linearGradient>
    <linearGradient id="card" x1="0%" y1="0%" x2="0%" y2="100%">
      <stop offset="0%" style="stop-color:#ffffff;stop-opacity:0.15"/>
      <stop offset="100%" style="stop-color:#ffffff;stop-opacity:0.05"/>
    </linearGradient>
  </defs>
  <rect width="800" height="400" fill="url(#bg)"/>
  <!-- Browser chrome -->
  <rect x="80" y="60" width="640" height="280" rx="12" fill="#0f172a" opacity="0.6"/>
  <rect x="80" y="60" width="640" height="36" rx="12" fill="#1e293b"/>
  <circle cx="104" cy="78" r="6" fill="#ef4444" opacity="0.8"/>
  <circle cx="124" cy="78" r="6" fill="#eab308" opacity="0.8"/>
  <circle cx="144" cy="78" r="6" fill="#22c55e" opacity="0.8"/>
  <rect x="200" y="70" width="360" height="16" rx="8" fill="#334155"/>
  <!-- Nav bar -->
  <rect x="96" y="108" width="608" height="32" fill="#1e293b" opacity="0.5"/>
  <rect x="112" y="116" width="60" height="16" rx="4" fill="#3b82f6" opacity="0.6"/>
  <rect x="520" y="116" width="40" height="16" rx="4" fill="#475569"/>
  <rect x="572" y="116" width="40" height="16" rx="4" fill="#475569"/>
  <rect x="624" y="116" width="40" height="16" rx="4" fill="#475569"/>
  <!-- Hero content -->
  <rect x="200" y="168" width="400" height="20" rx="4" fill="#60a5fa" opacity="0.4"/>
  <rect x="160" y="200" width="480" height="32" rx="4" fill="#e2e8f0" opacity="0.3"/>
  <rect x="240" y="244" width="320" height="14" rx="4" fill="#94a3b8" opacity="0.3"/>
  <!-- CTA buttons -->
  <rect x="280" y="280" width="100" height="32" rx="8" fill="#3b82f6" opacity="0.7"/>
  <rect x="400" y="280" width="100" height="32" rx="8" fill="none" stroke="#e2e8f0" stroke-width="2" opacity="0.4"/>
</svg>
