<svg xmlns="http://www.w3.org/2000/svg" viewBox="0 0 800 400">
  <defs>
    <linearGradient id="bg" x1="0%" y1="0%" x2="100%" y2="100%">
      <stop offset="0%" style="stop-color:#1e293b"/>
      <stop offset="100%" style="stop-color:#7c3aed"/>
    </linearGradient>
  </defs>
  <rect width="800" height="400" fill="url(#bg)"/>
  <!-- Dashboard frame -->
  <rect x="80" y="40" width="640" height="320" rx="12" fill="#0f172a" opacity="0.7"/>
  <!-- Sidebar -->
  <rect x="80" y="40" width="140" height="320" rx="12" fill="#1e293b" opacity="0.8"/>
  <rect x="100" y="70" width="100" height="14" rx="4" fill="#8b5cf6" opacity="0.5"/>
  <rect x="100" y="100" width="80" height="10" rx="4" fill="#475569" opacity="0.5"/>
  <rect x="100" y="122" width="90" height="10" rx="4" fill="#475569" opacity="0.5"/>
  <rect x="100" y="144" width="70" height="10" rx="4" fill="#475569" opacity="0.5"/>
  <rect x="100" y="166" width="85" height="10" rx="4" fill="#475569" opacity="0.5"/>
  <!-- Stat cards -->
  <rect x="240" y="60" width="140" height="70" rx="8" fill="#1e293b"/>
  <rect x="260" y="78" width="60" height="8" rx="2" fill="#94a3b8" opacity="0.4"/>
  <rect x="260" y="96" width="80" height="16" rx="2" fill="#22c55e" opacity="0.6"/>
  <rect x="400" y="60" width="140" height="70" rx="8" fill="#1e293b"/>
  <rect x="420" y="78" width="60" height="8" rx="2" fill="#94a3b8" opacity="0.4"/>
  <rect x="420" y="96" width="80" height="16" rx="2" fill="#60a5fa" opacity="0.6"/>
  <rect x="560" y="60" width="140" height="70" rx="8" fill="#1e293b"/>
  <rect x="580" y="78" width="60" height="8" rx="2" fill="#94a3b8" opacity="0.4"/>
  <rect x="580" y="96" width="80" height="16" rx="2" fill="#f59e0b" opacity="0.6"/>
  <!-- Chart area -->
  <rect x="240" y="150" width="300" height="190" rx="8" fill="#1e293b"/>
  <!-- Bar chart -->
  <rect x="272" y="260" width="24" height="60" rx="4" fill="#8b5cf6" opacity="0.6"/>
  <rect x="312" y="230" width="24" height="90" rx="4" fill="#8b5cf6" opacity="0.7"/>
  <rect x="352" y="200" width="24" height="120" rx="4" fill="#8b5cf6" opacity="0.8"/>
  <rect x="392" y="220" width="24" height="100" rx="4" fill="#8b5cf6" opacity="0.7"/>
  <rect x="432" y="190" width="24" height="130" rx="4" fill="#8b5cf6" opacity="0.9"/>
  <rect x="472" y="240" width="24" height="80" rx="4" fill="#8b5cf6" opacity="0.6"/>
  <!-- Table -->
  <rect x="560" y="150" width="140" height="190" rx="8" fill="#1e293b"/>
  <rect x="574" y="168" width="112" height="8" rx="2" fill="#94a3b8" opacity="0.3"/>
  <rect x="574" y="190" width="112" height="24" rx="4" fill="#334155" opacity="0.5"/>
  <rect x="574" y="222" width="112" height="24" rx="4" fill="#334155" opacity="0.5"/>
  <rect x="574" y="254" width="112" height="24" rx="4" fill="#334155" opacity="0.5"/>
  <rect x="574" y="286" width="112" height="24" rx="4" fill="#334155" opacity="0.5"/>
</svg>
